<svg width="900" height="1140" viewBox="0 0 900 1140" fill="none" xmlns="http://www.w3.org/2000/svg">
<rect x="51" width="798" height="1140" rx="80" fill="#DAE9FF"/>
<path fill-rule="evenodd" clip-rule="evenodd" d="M40 70C17.9086 70 0 87.9086 0 110V1030C0 1052.09 17.9086 1070 40 1070H50.9863H104.249H108.862C130.953 1070 148.862 1052.09 148.862 1030V1013.69C148.862 991.597 130.953 973.689 108.862 973.689H90.9863C68.895 973.689 50.9863 955.78 50.9863 933.689V913.082C50.9863 890.99 68.8949 873.082 90.9863 873.082H172.14C194.231 873.082 212.14 890.99 212.14 913.082V1030C212.14 1052.09 230.048 1070 252.14 1070H450H860C882.091 1070 900 1052.09 900 1030V821C900 798.909 882.091 781 860 781H729H665H616C574.579 781 541 747.421 541 706C541 664.579 574.579 631 616 631H665H729H860C882.091 631 900 613.091 900 591V234.442C900 212.35 882.091 194.442 860 194.442H580.819C558.728 194.442 540.819 176.533 540.819 154.442V110C540.819 87.9086 522.911 70 500.819 70H40Z" fill="#1976D2"/>
</svg>
