<svg width="81" height="90" viewBox="0 0 81 90" fill="none" xmlns="http://www.w3.org/2000/svg">
<g filter="url(#filter0_d_1_20)">
<path fill-rule="evenodd" clip-rule="evenodd" d="M59.6215 2C63.4479 4.20914 64.7589 9.10186 62.5497 12.9282L42.634 47.4232C42.8713 48.1264 43 48.8797 43 49.663C43 51.5479 42.255 53.2588 41.0433 54.5173L44.2477 59.8772C46.4495 55.0321 51.3313 51.663 57 51.663C64.732 51.663 71 57.931 71 65.663C71 73.395 64.732 79.663 57 79.663C51.9001 79.663 47.437 76.936 44.9895 72.8607L44.8745 72.9294L36.2112 58.4387L28.9155 71.0752C26.799 76.1198 21.8133 79.663 16 79.663C8.26801 79.663 2 73.395 2 65.663C2 57.931 8.26801 51.663 16 51.663C21.6395 51.663 26.5002 54.9974 28.718 59.8023L31.484 55.0116C29.9647 53.7275 29 51.8079 29 49.663C29 48.7782 29.1641 47.9318 29.4637 47.1525L9.10516 13.1C6.83796 9.30777 8.07422 4.39562 11.8664 2.12842L36.1007 42.6637L36.1439 42.6644L59.6215 2ZM50.1401 69.7814C51.5394 72.1071 54.088 73.663 57 73.663C61.4183 73.663 65 70.0812 65 65.663C65 61.2447 61.4183 57.663 57 57.663C52.5817 57.663 49 61.2447 49 65.663C49 66.9365 49.2976 68.1405 49.827 69.2093L50.1614 69.7686L50.1401 69.7814ZM33.3255 48.3025C33.1174 48.7109 33 49.1732 33 49.663C33 50.0157 33.0609 50.3541 33.1727 50.6685C33.2677 50.9358 33.3996 51.1856 33.5622 51.4119C33.6014 51.4664 33.6424 51.5196 33.6851 51.5712C34.2353 52.238 35.068 52.663 36 52.663C36.932 52.663 37.7647 52.238 38.3149 51.5712C38.3866 51.4844 38.4535 51.3934 38.5152 51.2988C38.8218 50.8283 39 50.2664 39 49.663C39 49.2221 38.9049 48.8033 38.734 48.4263C38.7043 48.3605 38.6722 48.2961 38.6379 48.233C38.1299 47.2978 37.1391 46.663 36 46.663C35.9271 46.663 35.8547 46.6656 35.7831 46.6707C34.7085 46.7475 33.7905 47.3902 33.3255 48.3025ZM16 73.663C20.4183 73.663 24 70.0812 24 65.663C24 61.2447 20.4183 57.663 16 57.663C11.5817 57.663 8 61.2447 8 65.663C8 70.0812 11.5817 73.663 16 73.663Z" fill="url(#paint0_linear_1_20)"/>
</g>
<defs>
<filter id="filter0_d_1_20" x="0" y="0" width="81" height="89.663" filterUnits="userSpaceOnUse" color-interpolation-filters="sRGB">
<feFlood flood-opacity="0" result="BackgroundImageFix"/>
<feColorMatrix in="SourceAlpha" type="matrix" values="0 0 0 0 0 0 0 0 0 0 0 0 0 0 0 0 0 0 127 0" result="hardAlpha"/>
<feOffset dx="4" dy="4"/>
<feGaussianBlur stdDeviation="3"/>
<feColorMatrix type="matrix" values="0 0 0 0 0.21875 0 0 0 0 0.2625 0 0 0 0 0.28125 0 0 0 0.25 0"/>
<feBlend mode="normal" in2="BackgroundImageFix" result="effect1_dropShadow_1_20"/>
<feBlend mode="normal" in="SourceGraphic" in2="effect1_dropShadow_1_20" result="shape"/>
</filter>
<linearGradient id="paint0_linear_1_20" x1="2" y1="2" x2="71" y2="2" gradientUnits="userSpaceOnUse">
<stop stop-color="#076BA0"/>
<stop offset="1" stop-color="#0AABE4"/>
</linearGradient>
</defs>
</svg>
