<svg width="900" height="1000" viewBox="0 0 900 1000" fill="none" xmlns="http://www.w3.org/2000/svg">
<path fill-rule="evenodd" clip-rule="evenodd" d="M40 0C17.9086 0 0 17.9086 0 40V960C0 982.091 17.9086 1000 40 1000H50.9863H104.249H108.862C130.953 1000 148.862 982.091 148.862 960V943.689C148.862 921.597 130.953 903.689 108.862 903.689H90.9863C68.895 903.689 50.9863 885.78 50.9863 863.689V843.082C50.9863 820.99 68.8949 803.082 90.9863 803.082H172.14C194.231 803.082 212.14 820.99 212.14 843.082V960C212.14 982.091 230.048 1000 252.14 1000H450H860C882.091 1000 900 982.091 900 960V751C900 728.909 882.091 711 860 711H729H665H616C574.579 711 541 677.421 541 636C541 594.579 574.579 561 616 561H665H729H860C882.091 561 900 543.091 900 521V164.442C900 142.35 882.091 124.442 860 124.442H580.819C558.728 124.442 540.819 106.533 540.819 84.4417V40C540.819 17.9086 522.911 0 500.819 0H40Z" fill="#1976D2"/>
</svg>
